<?xml version="1.0" encoding="UTF-8" standalone="no"?>
<!DOCTYPE svg PUBLIC "-//W3C//DTD SVG 1.1//EN" "http://www.w3.org/Graphics/SVG/1.1/DTD/svg11.dtd">
<svg version="1.1" xmlns="http://www.w3.org/2000/svg" xmlns:xlink="http://www.w3.org/1999/xlink" preserveAspectRatio="xMidYMid meet" viewBox="0 0 640 640" width="640" height="640"><defs><path d="M334.75 123.17C340.28 123.17 344.75 127.65 344.75 133.17C344.75 183.45 344.75 324.28 344.75 374.55C344.75 380.08 340.28 384.55 334.75 384.55C296.16 384.55 190.38 384.55 151.78 384.55C146.26 384.55 141.78 380.08 141.78 374.55C141.78 324.28 141.78 183.45 141.78 133.17C141.78 127.65 146.26 123.17 151.78 123.17C190.38 123.17 296.16 123.17 334.75 123.17Z" id="ezFLBFf38"></path><path d="M180.4 188.51L306.14 188.51L306.14 191.49L180.4 191.49L180.4 188.51Z" id="a3IYwdiyct"></path><path d="M180.4 226.24L306.14 226.24L306.14 229.21L180.4 229.21L180.4 226.24Z" id="calWqxXJ1"></path><path d="M180.4 261.98L306.14 261.98L306.14 264.95L180.4 264.95L180.4 261.98Z" id="jGb9eVqjN"></path></defs><g><g><g><g><use xlink:href="#ezFLBFf38" opacity="1" fill-opacity="0" stroke="#bfad49" stroke-width="2" stroke-opacity="1"></use></g></g><g><use xlink:href="#a3IYwdiyct" opacity="1" fill="#bfad49" fill-opacity="1"></use></g><g><use xlink:href="#calWqxXJ1" opacity="1" fill="#bfad49" fill-opacity="1"></use></g><g><use xlink:href="#jGb9eVqjN" opacity="1" fill="#bfad49" fill-opacity="1"></use></g></g></g></svg>