<?xml version="1.0" encoding="UTF-8" standalone="no"?>
<!DOCTYPE svg PUBLIC "-//W3C//DTD SVG 1.1//EN" "http://www.w3.org/Graphics/SVG/1.1/DTD/svg11.dtd">
<svg version="1.1" xmlns="http://www.w3.org/2000/svg" xmlns:xlink="http://www.w3.org/1999/xlink" preserveAspectRatio="xMidYMid meet" viewBox="0 0 640 640" width="640" height="640"><defs><path d="M326.31 139.43L331.72 139.94L337.05 140.66L342.32 141.57L347.52 142.67L352.63 143.96L357.66 145.43L362.61 147.08L367.46 148.9L372.22 150.9L376.88 153.06L381.44 155.39L385.88 157.87L390.22 160.51L394.43 163.3L398.53 166.24L402.5 169.32L406.33 172.53L410.04 175.88L413.6 179.37L417.03 182.97L420.3 186.71L423.43 190.55L426.39 194.52L429.2 198.59L431.85 202.77L434.32 207.05L436.62 211.43L438.74 215.9L440.69 220.47L442.44 225.11L444.01 229.84L445.38 234.65L446.55 239.53L447.52 244.49L448.28 249.5L448.83 254.58L449.16 259.72L449.27 264.91L449.16 270.1L448.83 275.23L448.28 280.31L447.52 285.33L446.55 290.28L445.38 295.16L444.01 299.97L442.44 304.7L440.69 309.35L438.74 313.91L436.62 318.39L434.32 322.76L431.85 327.05L429.2 331.22L426.49 335.16L511.09 414.67L474.66 448.91L390.07 369.4L385.88 371.94L381.44 374.43L376.88 376.75L372.22 378.91L367.46 380.91L362.61 382.74L357.66 384.39L352.63 385.86L347.52 387.15L342.32 388.25L337.05 389.16L331.72 389.87L326.31 390.39L320.85 390.7L315.33 390.8L309.81 390.7L304.34 390.39L298.94 389.87L293.6 389.16L288.33 388.25L283.14 387.15L278.02 385.86L272.99 384.39L268.05 382.74L263.19 380.91L258.43 378.91L253.77 376.75L249.22 374.43L244.77 371.94L240.44 369.3L236.22 366.51L232.13 363.58L228.16 360.5L224.32 357.28L220.62 353.93L217.05 350.45L213.63 346.84L210.35 343.11L207.23 339.26L204.26 335.3L201.45 331.22L198.81 327.05L196.34 322.76L194.04 318.39L191.91 313.91L189.97 309.35L188.21 304.7L186.65 299.97L185.28 295.16L184.11 290.28L183.14 285.33L182.38 280.31L181.83 275.23L181.5 270.1L181.39 264.91L181.5 259.72L181.83 254.58L182.38 249.5L183.14 244.49L184.11 239.53L185.28 234.65L186.65 229.84L188.21 225.11L189.97 220.47L191.91 215.9L194.04 211.43L196.34 207.05L198.81 202.77L201.45 198.59L204.26 194.52L207.23 190.55L210.35 186.71L213.63 182.97L217.05 179.37L220.62 175.88L224.32 172.53L228.16 169.32L232.13 166.24L236.22 163.3L240.44 160.51L244.77 157.87L249.22 155.39L253.77 153.06L258.43 150.9L263.19 148.9L268.05 147.08L272.99 145.43L278.02 143.96L283.14 142.67L288.33 141.57L293.6 140.66L298.94 139.94L304.34 139.43L309.81 139.11L315.33 139.01L320.85 139.11L326.31 139.43ZM308.55 187.48L305.22 187.8L301.92 188.24L298.67 188.8L295.47 189.48L292.31 190.28L289.21 191.19L286.15 192.2L283.16 193.33L280.22 194.56L277.35 195.9L274.54 197.33L271.79 198.86L269.12 200.49L266.52 202.21L263.99 204.03L261.54 205.93L259.17 207.91L256.89 209.98L254.69 212.13L252.58 214.35L250.56 216.65L248.63 219.03L246.8 221.47L245.07 223.99L243.43 226.57L241.91 229.21L240.49 231.91L239.18 234.67L237.98 237.49L236.9 240.35L235.93 243.27L235.08 246.24L234.36 249.25L233.76 252.31L233.3 255.4L232.96 258.54L232.75 261.71L232.68 264.91L232.75 268.11L232.96 271.28L233.3 274.41L233.76 277.51L234.36 280.56L235.08 283.57L235.93 286.54L236.9 289.46L237.98 292.33L239.18 295.14L240.49 297.9L241.91 300.61L243.43 303.25L245.07 305.83L246.8 308.34L248.63 310.78L250.56 313.16L252.58 315.46L254.69 317.69L256.89 319.84L259.17 321.9L261.54 323.89L263.99 325.79L266.52 327.6L269.12 329.32L271.79 330.95L274.54 332.48L277.35 333.92L280.22 335.25L283.16 336.48L286.15 337.61L289.21 338.63L292.31 339.54L295.47 340.33L298.67 341.01L301.92 341.57L305.22 342.01L308.55 342.33L311.92 342.52L315.33 342.59L318.73 342.52L322.11 342.33L325.44 342.01L328.73 341.57L331.98 341.01L335.19 340.33L338.34 339.54L341.45 338.63L344.5 337.61L347.5 336.48L350.43 335.25L353.31 333.92L356.12 332.48L358.86 330.95L361.54 329.32L364.14 327.6L366.66 325.79L369.11 323.89L371.48 321.9L373.77 319.84L375.97 317.69L378.08 315.46L380.1 313.16L382.03 310.78L383.86 308.34L385.59 305.83L387.22 303.25L388.75 300.61L390.17 297.9L391.48 295.14L392.68 292.33L393.76 289.46L394.73 286.54L395.57 283.57L396.29 280.56L396.89 277.51L397.36 274.41L397.7 271.28L397.9 268.11L397.97 264.91L397.9 261.71L397.7 258.54L397.36 255.4L396.89 252.31L396.29 249.25L395.57 246.24L394.73 243.27L393.76 240.35L392.68 237.49L391.48 234.67L390.17 231.91L388.75 229.21L387.22 226.57L385.59 223.99L383.86 221.47L382.03 219.03L380.1 216.65L378.08 214.35L375.97 212.13L373.77 209.98L371.48 207.91L369.11 205.93L366.66 204.03L364.14 202.21L361.54 200.49L358.86 198.86L356.12 197.33L353.31 195.9L350.43 194.56L347.5 193.33L344.5 192.2L341.45 191.19L338.34 190.28L335.19 189.48L331.98 188.8L328.73 188.24L325.44 187.8L322.11 187.48L318.73 187.29L315.33 187.23L311.92 187.29L308.55 187.48Z" id="a2UudiesrX"></path></defs><g><g><g><g><use xlink:href="#a2UudiesrX" opacity="1" fill-opacity="0" stroke="#bfad49" stroke-width="3" stroke-opacity="1"></use></g></g></g></g></svg>