<?xml version="1.0" encoding="UTF-8" standalone="no"?>
<!DOCTYPE svg PUBLIC "-//W3C//DTD SVG 1.1//EN" "http://www.w3.org/Graphics/SVG/1.1/DTD/svg11.dtd">
<svg version="1.1" xmlns="http://www.w3.org/2000/svg" xmlns:xlink="http://www.w3.org/1999/xlink" preserveAspectRatio="xMidYMid meet" viewBox="0 0 640 640" width="640" height="640"><defs><path d="M385.54 344.24C385.54 426.52 374.69 493.32 361.31 493.32C347.94 493.32 337.08 426.52 337.08 344.24C337.08 261.96 347.94 195.16 361.31 195.16C374.69 195.16 385.54 261.96 385.54 344.24Z" id="aQhDh3h1a"></path><path d="M385.54 171.69C385.54 185.49 374.69 196.7 361.31 196.7C347.94 196.7 337.08 185.49 337.08 171.69C337.08 157.89 347.94 146.68 361.31 146.68C374.69 146.68 385.54 157.89 385.54 171.69Z" id="aCtvUdjS"></path><path d="M528.91 344.24C528.91 358.04 504.67 369.24 474.82 369.24C444.96 369.24 420.72 358.04 420.72 344.24C420.72 330.44 444.96 319.23 474.82 319.23C504.67 319.23 528.91 330.44 528.91 344.24Z" id="a3OpP2e6X"></path><path d="M286.41 253.76C286.41 267.56 262.17 278.77 232.31 278.77C202.46 278.77 178.22 267.56 178.22 253.76C178.22 239.96 202.46 228.76 232.31 228.76C262.17 228.76 286.41 239.96 286.41 253.76Z" id="b1cVJHNL3"></path><path d="M504.9 288.74C521.4 315.78 531.84 340.47 528.18 343.85C524.52 347.23 508.15 328.03 491.65 300.99C475.14 273.95 464.71 249.26 468.37 245.88C472.02 242.5 488.39 261.71 504.9 288.74Z" id="a1lXhyv5i"></path><path d="M444.73 288.74C428.23 315.78 417.8 340.47 421.45 343.85C425.11 347.23 441.48 328.03 457.98 300.99C474.49 273.95 484.92 249.26 481.27 245.88C477.61 242.5 461.24 261.71 444.73 288.74Z" id="b8DZzAOXh"></path><path d="M262.4 202.56C278.9 229.6 289.33 254.29 285.68 257.67C282.02 261.05 265.65 241.84 249.15 214.81C232.64 187.77 222.21 163.08 225.86 159.7C229.52 156.32 245.89 175.53 262.4 202.56Z" id="abUxxtoxz"></path><path d="M195.05 198.27C178.54 225.3 168.11 250 171.77 253.38C175.43 256.76 191.8 237.55 208.3 210.51C224.81 183.48 235.24 158.78 231.58 155.41C227.93 152.03 211.56 171.23 195.05 198.27Z" id="atWS3EG2p"></path><path d="M518.44 257.54C517.53 261.63 445.82 241.15 358.41 211.81C271.01 182.48 200.78 155.34 201.68 151.25C202.59 147.15 274.3 167.64 361.71 196.97C449.12 226.3 519.34 253.44 518.44 257.54Z" id="a55x38aQwm"></path></defs><g><g><g><use xlink:href="#aQhDh3h1a" opacity="1" fill="#bfad49" fill-opacity="1"></use></g><g><use xlink:href="#aCtvUdjS" opacity="1" fill="#bfad49" fill-opacity="1"></use></g><g><use xlink:href="#a3OpP2e6X" opacity="1" fill="#bfad49" fill-opacity="1"></use></g><g><use xlink:href="#b1cVJHNL3" opacity="1" fill="#bfad49" fill-opacity="1"></use></g><g><use xlink:href="#a1lXhyv5i" opacity="1" fill="#bfad49" fill-opacity="1"></use></g><g><use xlink:href="#b8DZzAOXh" opacity="1" fill="#bfad49" fill-opacity="1"></use></g><g><use xlink:href="#abUxxtoxz" opacity="1" fill="#bfad49" fill-opacity="1"></use></g><g><use xlink:href="#atWS3EG2p" opacity="1" fill="#bfad49" fill-opacity="1"></use></g><g><use xlink:href="#a55x38aQwm" opacity="1" fill="#bfad49" fill-opacity="1"></use></g></g></g></svg>